<?xml version="1.0" encoding="UTF-8"?>
<svg width="64px" height="70px" viewBox="0 0 64 70" version="1.1" xmlns="http://www.w3.org/2000/svg" xmlns:xlink="http://www.w3.org/1999/xlink">
    <title>invoice-warranty-line-svgrepo-com</title>
    <g id="Page-1" stroke="none" stroke-width="1" fill="none" fill-rule="evenodd">
        <g id="Home-Page-V2-Copy-4" transform="translate(-871, -6886)" fill="#FFFFFF" fill-rule="nonzero">
            <g id="invoice-warranty-line-svgrepo-com" transform="translate(871, 6886)">
                <polygon id="Path" points="5.81883265 5.81883265 52.3647211 5.81883265 52.3647211 29.0917769 58.1827583 29.0917769 58.1827583 0 0 0 0 69.8196281 32.0007955 69.8196281 32.0007955 64.0007955 5.81883265 64.0007955"></polygon>
                <path d="M48,32.4852342 L32,40.4860296 L32,47.5052202 C32,56.278413 36.9565477,64.2982997 44.8030228,68.2215372 L48,69.8196281 L51.1969772,68.2215372 C59.0434523,64.2982997 64,56.278413 64,47.5052202 L64,40.4860296 L48,32.4852342 Z M58.1819628,47.5044248 C58.1819628,54.1163369 54.5085015,60.0600577 48.5950085,63.0168042 L48,63.3143084 L47.4049915,63.0168042 C41.4914985,60.0600577 37.8180372,54.1155414 37.8180372,47.5044248 L37.8180372,44.0815352 L48,38.9905538 L58.1819628,44.0815352 L58.1819628,47.5044248 Z" id="Shape"></path>
                <path d="M43.6034603,48.5289848 L40.7135329,51.7991449 L48.1312519,58.3561698 L57.1939942,47.9284081 L53.9015611,45.064731 L47.7255643,52.1714229 L43.6034603,48.5289848 Z M11.6360744,14.5458884 L46.5458884,14.5458884 L46.5458884,20.3639256 L11.6360744,20.3639256 L11.6360744,14.5458884 Z M11.6360744,29.0917769 L34.9090186,29.0917769 L34.9090186,34.9098141 L11.6360744,34.9098141 L11.6360744,29.0917769 Z M11.6360744,43.6368698 L23.2729442,43.6368698 L23.2729442,49.454907 L11.6360744,49.454907 L11.6360744,43.6368698 Z" id="Shape"></path>
            </g>
        </g>
    </g>
</svg>