<?xml version="1.0" encoding="UTF-8"?>
<svg width="25px" height="27px" viewBox="0 0 25 27" version="1.1" xmlns="http://www.w3.org/2000/svg" xmlns:xlink="http://www.w3.org/1999/xlink">
    <title>location_city_FILL0_wght400_GRAD0_opsz48</title>
    <g id="Page-1" stroke="none" stroke-width="1" fill="none" fill-rule="evenodd">
        <g id="Home-Page-V2.1-Copy" transform="translate(-621, -6764)" fill="#222222" fill-rule="nonzero">
            <g id="Group-26" transform="translate(0, 4108)">
                <g id="Footer" transform="translate(0, 2137)">
                    <g id="Group-50" transform="translate(268, 450)">
                        <g id="Contact" transform="translate(352, 0)">
                            <g id="Group-25" transform="translate(1, 66)">
                                <g id="location_city_FILL0_wght400_GRAD0_opsz48" transform="translate(0, 3)">
                                    <path d="M12.5,0 L16.4236111,3.81944444 L16.4236111,12.7777778 L25,12.7777778 L25,26.3888889 L0,26.3888889 L0,7.01388889 L8.57638889,7.01388889 L8.57638889,3.81944444 L12.5,0 Z M5.76388889,20.625 L2.08333333,20.625 L2.08333333,24.3055556 L5.76388889,24.3055556 L5.76388889,20.625 Z M14.3402778,20.625 L10.6597222,20.625 L10.6597222,24.3055556 L14.3402778,24.3055556 L14.3402778,20.625 Z M22.9166667,20.625 L19.2361111,20.625 L19.2361111,24.3055556 L22.9166667,24.3055556 L22.9166667,20.625 Z M5.76388889,14.8611111 L2.08333333,14.8611111 L2.08333333,18.5416667 L5.76388889,18.5416667 L5.76388889,14.8611111 Z M14.3402778,14.8611111 L10.6597222,14.8611111 L10.6597222,18.5416667 L14.3402778,18.5416667 L14.3402778,14.8611111 Z M22.9166667,14.8611111 L19.2361111,14.8611111 L19.2361111,18.5416667 L22.9166667,18.5416667 L22.9166667,14.8611111 Z M5.76388889,9.09722222 L2.08333333,9.09722222 L2.08333333,12.7777778 L5.76388889,12.7777778 L5.76388889,9.09722222 Z M14.3402778,9.09722222 L10.6597222,9.09722222 L10.6597222,12.7777778 L14.3402778,12.7777778 L14.3402778,9.09722222 Z M14.3402778,3.33333333 L10.6597222,3.33333333 L10.6597222,7.01388889 L14.3402778,7.01388889 L14.3402778,3.33333333 Z" id="Shape-Copy"></path>
                                </g>
                            </g>
                        </g>
                    </g>
                </g>
            </g>
        </g>
    </g>
</svg>