<?xml version="1.0" encoding="UTF-8"?>
<svg width="25px" height="18px" viewBox="0 0 25 18" version="1.1" xmlns="http://www.w3.org/2000/svg" xmlns:xlink="http://www.w3.org/1999/xlink">
    <title>mail_FILL0_wght400_GRAD0_opsz48</title>
    <g id="Page-1" stroke="none" stroke-width="1" fill="none" fill-rule="evenodd">
        <g id="Home-Page-V2.1-Copy" transform="translate(-622, -6889)" fill="#222222" fill-rule="nonzero">
            <g id="Group-26" transform="translate(0, 4108)">
                <g id="Footer" transform="translate(0, 2137)">
                    <g id="Group-50" transform="translate(268, 450)">
                        <g id="Contact" transform="translate(352, 0)">
                            <g id="Group-25" transform="translate(1, 66)">
                                <g id="Email" transform="translate(1, 124)">
                                    <g id="mail_FILL0_wght400_GRAD0_opsz48" transform="translate(0, 4)">
                                        <path d="M1.875,18 C1.375,18 0.9375,17.83125 0.5625,17.49375 C0.1875,17.15625 0,16.7625 0,16.3125 L0,1.6875 C0,1.2375 0.1875,0.84375 0.5625,0.50625 C0.9375,0.16875 1.375,0 1.875,0 L23.125,0 C23.625,0 24.0625,0.16875 24.4375,0.50625 C24.8125,0.84375 25,1.2375 25,1.6875 L25,16.3125 C25,16.7625 24.8125,17.15625 24.4375,17.49375 C24.0625,17.83125 23.625,18 23.125,18 L1.875,18 Z M12.5,9.2344086 L2,3 L2,16 L23,16 L23,3 L12.5,9.2344086 Z M12.4843517,8 L23,2 L2,2 L12.4843517,8 Z M2,3.58653846 L2,2 L2,17 L2,3.58653846 Z" id="Shape"></path>
                                    </g>
                                </g>
                            </g>
                        </g>
                    </g>
                </g>
            </g>
        </g>
    </g>
</svg>