<?xml version="1.0" encoding="UTF-8"?>
<svg width="34px" height="25px" viewBox="0 0 34 25" version="1.1" xmlns="http://www.w3.org/2000/svg" xmlns:xlink="http://www.w3.org/1999/xlink">
    <title>phone-line-drawing-svgrepo-com</title>
    <g id="Page-1" stroke="none" stroke-width="1" fill="none" fill-rule="evenodd">
        <g id="Home" transform="translate(-1241, -6782)" fill="#FFFFFF" fill-rule="nonzero">
            <g id="Footer" transform="translate(0, 6642)">
                <g id="CTA" transform="translate(270, 0)">
                    <g id="Group-9" transform="translate(971, 137)">
                        <g id="phone-line-drawing-svgrepo-com" transform="translate(0, 3)">
                            <path d="M32.6209548,5.61898541 C32.116998,4.71733004 31.2820874,3.9596612 30.2338623,3.28761954 C28.6579071,2.28435242 26.5701783,1.47590905 24.2051149,0.902094167 C21.8405038,0.330347874 19.2007546,0.000376107637 16.5380718,0 C12.4798014,0.00213127661 8.47779896,0.762746288 5.41626612,1.99180336 C3.88533819,2.60924673 2.58574848,3.34134025 1.62144089,4.203567 C1.14041763,4.63546394 0.741567553,5.1035299 0.455124207,5.61898541 C0.169197673,6.13237234 -0.000833649981,6.70117245 3.0738222e-06,7.28927943 C3.0738222e-06,10.3758068 3.0738222e-06,10.5311392 3.0738222e-06,10.5311392 C0.000458381351,11.7870253 1.0486188,12.8045845 2.343428,12.8049606 L3.14203257,12.8049606 L3.14203257,20.3691747 C3.14248478,22.9272081 5.27827717,24.9995612 7.91408569,25 L25.1619288,25 C27.7978019,24.9995612 29.9335297,22.9272081 29.9339819,20.3691747 L29.9339819,12.8049606 L30.7325864,12.8049606 C32.0269434,12.8045218 33.0755561,11.7870253 33.0760092,10.5311392 C33.0760092,10.5311392 33.0760092,10.3758068 33.0760092,7.28927943 C33.0764605,6.70110977 32.9068814,6.13237234 32.6209548,5.61898541 Z M4.91405354,12.8049606 L7.88301233,12.8049606 C9.17730472,12.8045218 10.225982,11.7870253 10.2263696,10.5311392 L10.2263696,8.09189313 C10.2259174,7.81313468 10.440976,7.57637492 10.7256105,7.54202376 L10.7589449,7.53782389 L10.7922793,7.53111664 L10.7926669,7.53111664 C10.8588189,7.51851703 12.7909226,7.15124793 16.5380718,7.15124793 C18.4722427,7.15124793 19.9227417,7.24903591 20.882721,7.3455702 C21.3624522,7.39346124 21.7197635,7.4412896 21.953815,7.47658103 C22.0706146,7.49419541 22.1567285,7.5084875 22.2117044,7.51814093 L22.270944,7.52860925 L22.2834767,7.53111664 L22.283929,7.53111664 L22.3168112,7.53782389 L22.3505332,7.54202376 C22.6351677,7.57637492 22.8501617,7.81313468 22.8497095,8.09189313 L22.8497095,10.5311392 C22.8501617,11.7870253 23.8983221,12.8045845 25.1931313,12.8049606 L28.1620901,12.8049606 L28.1620901,20.3691747 C28.1616379,21.1759256 27.8277124,21.8983657 27.2835088,22.4281133 C26.737561,22.9561684 25.9930279,23.2802478 25.1619934,23.2806239 L7.91415029,23.2806239 C7.08311574,23.2801851 6.33858268,22.9561684 5.79263484,22.4281133 C5.24843125,21.8983657 4.91444115,21.1759256 4.91405354,20.3691747 L4.91405354,12.8049606 Z M24.6216658,10.5311392 L24.6216658,8.09189313 C24.6212136,6.96858498 23.7759021,6.02367723 22.639496,5.85029161 L22.6403358,5.84690664 C22.5841324,5.83556073 20.5292212,5.43174649 16.5380718,5.43174649 C12.5468578,5.43174649 10.4920112,5.83556073 10.4358078,5.84690664 L10.4366477,5.85029161 C9.3002415,6.02361454 8.45493,6.96858498 8.45447779,8.09189313 L8.45447779,10.5311392 C8.45402558,10.8371655 8.19839718,11.0852084 7.88301233,11.0856472 L2.3434926,11.0856472 C2.02772014,11.0852084 1.77241475,10.8371655 1.77202714,10.5311392 C1.77202714,10.5311392 1.77202714,10.3758068 1.77202714,7.28927943 C1.77247935,7.01810582 1.84560833,6.74147865 2.01563965,6.43375992 C2.30893076,5.89730506 2.92322706,5.29076881 3.8156977,4.72447608 C5.15114129,3.87027295 7.0814361,3.10545807 9.29978929,2.57025691 C11.5185947,2.03336325 14.0273319,1.71893727 16.5381364,1.71937145 C20.3631952,1.71724479 24.1874141,2.45309938 26.9811735,3.57979249 C28.3771487,4.14019287 29.5127797,4.80044982 30.2516278,5.46578423 C30.621924,5.79776191 30.8914417,6.12773368 31.0606332,6.43375992 C31.2305999,6.74147865 31.3032767,7.01810582 31.3041811,7.28927943 C31.3041811,10.3758068 31.3041811,10.5311392 31.3041811,10.5311392 C31.3037289,10.8371655 31.0484881,11.0852084 30.7327156,11.0856472 L25.1932605,11.0856472 C24.8773589,11.0851458 24.6221181,10.8371028 24.6216658,10.5311392 Z" id="Shape"></path>
                            <rect id="Rectangle" x="11.9494871" y="18.4025706" width="2.07345188" height="2.01236391"></rect>
                            <rect id="Rectangle" x="11.9494871" y="15.2202612" width="2.07345188" height="2.01236391"></rect>
                            <rect id="Rectangle" x="11.9494871" y="12.0384532" width="2.07345188" height="2.01192512"></rect>
                            <rect id="Rectangle" x="15.5015397" y="18.4025706" width="2.07345188" height="2.01236391"></rect>
                            <rect id="Rectangle" x="15.5015397" y="15.2202612" width="2.07345188" height="2.01236391"></rect>
                            <rect id="Rectangle" x="15.5015397" y="12.0384532" width="2.07345188" height="2.01192512"></rect>
                            <rect id="Rectangle" x="19.0536568" y="18.4025706" width="2.07345188" height="2.01236391"></rect>
                            <rect id="Rectangle" x="19.0536568" y="15.2202612" width="2.07345188" height="2.01236391"></rect>
                            <rect id="Rectangle" x="19.0536568" y="12.0384532" width="2.07345188" height="2.01192512"></rect>
                        </g>
                    </g>
                </g>
            </g>
        </g>
    </g>
</svg>