<?xml version="1.0" encoding="UTF-8"?>
<svg width="25px" height="26px" viewBox="0 0 25 26" version="1.1" xmlns="http://www.w3.org/2000/svg" xmlns:xlink="http://www.w3.org/1999/xlink">
    <title>phone_in_talk_FILL0_wght400_GRAD0_opsz48</title>
    <g id="Page-1" stroke="none" stroke-width="1" fill="none" fill-rule="evenodd">
        <g id="Home-Page-V2.1-Copy" transform="translate(-621, -6927)" fill="#222222" fill-rule="nonzero">
            <g id="Group-26" transform="translate(0, 4108)">
                <g id="Footer" transform="translate(0, 2137)">
                    <g id="Group-50" transform="translate(268, 450)">
                        <g id="Contact" transform="translate(352, 0)">
                            <g id="Group-25" transform="translate(1, 66)">
                                <g id="Phone" transform="translate(0, 165)">
                                    <g id="phone_in_talk_FILL0_wght400_GRAD0_opsz48" transform="translate(0, 1)">
                                        <path d="M22.7777778,12.2916667 C22.662037,9.49074074 21.6319444,7.11805556 19.6875,5.17361111 C17.7430556,3.22916667 15.3703704,2.19907407 12.5694444,2.08333333 L12.5694444,0 C14.2361111,0.0462962963 15.8043981,0.399305556 17.2743056,1.05902778 C18.744213,1.71875 20.0347222,2.60416667 21.1458333,3.71527778 C22.2569444,4.82638889 23.1423611,6.11689815 23.8020833,7.58680556 C24.4618056,9.05671296 24.8148148,10.625 24.8611111,12.2916667 L22.7777778,12.2916667 Z M16.9097222,12.2916667 C16.7939815,11.1342593 16.3310185,10.15625 15.5208333,9.35763889 C14.7106481,8.55902778 13.7268519,8.10185185 12.5694444,7.98611111 L12.5694444,5.90277778 C14.3055556,6.01851852 15.78125,6.67824074 16.9965278,7.88194444 C18.2118056,9.08564815 18.8773148,10.5555556 18.9930556,12.2916667 L16.9097222,12.2916667 Z M23.4375,25.0347222 C20.7523148,25.0347222 18.0150463,24.3865741 15.2256944,23.0902778 C12.4363426,21.7939815 9.84953704,19.9537037 7.46527778,17.5694444 C5.08101852,15.1851852 3.24074074,12.5983796 1.94444444,9.80902778 C0.648148148,7.01967593 0,4.28240741 0,1.59722222 C0,1.15078704 0.14880787,0.778761574 0.446423611,0.481145833 C0.744039352,0.183530093 1.11606481,0.0347222222 1.5625,0.0347222222 L6.42361111,0.0347222222 C6.74768519,0.0347222222 7.02546296,0.150462963 7.25694444,0.381944444 C7.48842593,0.613425926 7.65046296,0.902777778 7.74305556,1.25 L8.67809028,5.61253472 C8.72603009,5.94491898 8.72106481,6.24421296 8.66319444,6.51041667 C8.60532407,6.77662037 8.48114583,7.00493056 8.29065972,7.19534722 L4.82638889,10.6944444 C5.42824074,11.712963 6.06481481,12.662037 6.73611111,13.5416667 C7.40740741,14.4212963 8.14814815,15.2546296 8.95833333,16.0416667 C9.81481481,16.9212963 10.7175926,17.7256944 11.6666667,18.4548611 C12.6157407,19.1840278 13.6111111,19.8263889 14.6527778,20.3819444 L17.9513889,16.9791667 C18.1828704,16.724537 18.4508218,16.5509259 18.7552431,16.4583333 C19.0596644,16.3657407 19.3588426,16.3425926 19.6527778,16.3888889 L23.7847222,17.2916667 C24.1319444,17.3842593 24.4212963,17.5699537 24.6527778,17.84875 C24.8842593,18.1275463 25,18.439537 25,18.7847222 L25,23.4722222 C25,23.9186574 24.8511921,24.2906829 24.5535764,24.5882986 C24.2559606,24.8859144 23.8839352,25.0347222 23.4375,25.0347222 Z M3.78472222,8.78472222 L6.59722222,5.9375 L5.79861111,2.11805556 L2.08333333,2.11805556 C2.12962963,3.09027778 2.28587963,4.11458333 2.55208333,5.19097222 C2.81828704,6.26736111 3.22916667,7.46527778 3.78472222,8.78472222 Z M16.5972222,21.3888889 C17.5462963,21.8287037 18.5763889,22.1875 19.6875,22.4652778 C20.7986111,22.7430556 21.875,22.9050926 22.9166667,22.9513889 L22.9166667,19.2361111 L19.3402778,18.5069444 L16.5972222,21.3888889 Z" id="Shape"></path>
                                    </g>
                                </g>
                            </g>
                        </g>
                    </g>
                </g>
            </g>
        </g>
    </g>
</svg>