<?xml version="1.0" encoding="UTF-8"?>
<svg width="69px" height="57px" viewBox="0 0 69 57" version="1.1" xmlns="http://www.w3.org/2000/svg" xmlns:xlink="http://www.w3.org/1999/xlink">
    <title>Shape</title>
    <g id="Page-1" stroke="none" stroke-width="1" fill="none" fill-rule="evenodd">
        <g id="Home-Page-V2.1-Copy" transform="translate(-310, -5147)" fill="#FFBEE3" fill-rule="nonzero">
            <g id="Group-26" transform="translate(0, 4108)">
                <g id="Testimonial-Section" transform="translate(270, 917)">
                    <g id="Testimonial-Item-1" transform="translate(0, 122)">
                        <path d="M70,42.1644293 C70,52.0547634 64.9999785,57 54.9999356,57 C45,57 40,52.0547634 40,42.1644293 C40,33.4452366 42,25.376678 45.9999871,17.9588927 C49.9999785,10.4109666 54.8235309,4.42465976 60.4705412,0 L67.8822423,5.07534951 C63.9999227,12.2328812 62.0588273,19.2603 62.0588273,26.157578 C62.0588273,27.1985927 62.1175859,28.1746829 62.235232,29.0855707 C64.4705069,29.8664707 66.2940851,31.4931951 67.7058376,33.9657439 C69.2352363,36.3081659 70,39.0411073 70,42.1644293 Z M109,42.1644293 C109,52.0547634 103.999979,57 94.0000644,57 C84.0000215,57 79,52.0547634 79,42.1644293 C79,33.4452366 81.0001117,25.376678 85.0000773,17.9588927 C89.000043,10.4109666 93.8235309,4.42465976 99.4705412,0 L106.882371,5.07534951 C103.000052,12.2328812 101.058827,19.2603 101.058827,26.157578 C101.058827,27.1985927 101.117715,28.1746829 101.235361,29.0855707 C103.470636,29.8664707 105.294085,31.4931951 106.705838,33.9657439 C108.235236,36.3081659 109,39.0411073 109,42.1644293 Z" id="Shape"></path>
                    </g>
                </g>
            </g>
        </g>
    </g>
</svg>