<?xml version="1.0" encoding="UTF-8"?>
<svg width="33px" height="33px" viewBox="0 0 33 33" version="1.1" xmlns="http://www.w3.org/2000/svg" xmlns:xlink="http://www.w3.org/1999/xlink">
    <title>whatsapp</title>
    <g id="Page-1" stroke="none" stroke-width="1" fill="none" fill-rule="evenodd">
        <g id="Home-Page-V2.1-Copy" transform="translate(-342, -6497)" fill="#FFFFFF">
            <g id="Group-26" transform="translate(0, 4108)">
                <g id="Footer" transform="translate(0, 2137)">
                    <g id="CTA" transform="translate(265, 0)">
                        <g id="Group-44" transform="translate(77, 74)">
                            <g id="Group-18" transform="translate(0.505, 173)">
                                <g id="WA_Logo" transform="translate(0, 5.54)">
                                    <path d="M27.2038601,4.65138721 C24.212304,1.65500603 20.2267793,0.00482509047 15.9855247,0 C7.24728589,0 0.130277443,7.11218335 0.130277443,15.8552473 C0.130277443,18.6489747 0.858866104,21.3799759 2.24849216,23.7828709 L0,32 L8.4053076,29.7949337 C10.721351,31.0591074 13.3268999,31.7249698 15.9806996,31.7249698 L15.9855247,31.7249698 C15.9855247,31.7249698 15.9855247,31.7249698 15.9855247,31.7249698 C24.7237636,31.7249698 31.8359469,24.6127865 31.8407826,15.8697226 C31.8455971,11.6332931 30.2002413,7.6477684 27.2038601,4.65138721 Z M15.9903498,29.0470446 L15.9855247,29.0470446 C13.6212304,29.0470446 11.3003619,28.4101327 9.27864897,27.2086852 L8.79613993,26.9240048 L3.80699638,28.2316043 L5.13872135,23.3679131 L4.82509047,22.8709288 C3.50784077,20.7720145 2.80820265,18.3498191 2.80820265,15.8552473 C2.81302774,8.58866104 8.72376357,2.67792521 15.9951749,2.67792521 C19.517491,2.67792521 22.8226779,4.053076 25.3124246,6.54282268 C27.8021713,9.03256936 29.172497,12.3474065 29.1676846,15.8648975 C29.1676846,23.1363088 23.252111,29.0470446 15.9903498,29.0470446 Z M23.2183353,19.1749095 C22.8226779,18.9770808 20.8733414,18.0168878 20.5114596,17.8866104 C20.1495778,17.7563329 19.8841978,17.6887817 19.6188179,18.0844391 C19.3534379,18.4800965 18.5958987,19.3727382 18.3642943,19.6381182 C18.13269,19.9034982 17.9010856,19.9372738 17.5054282,19.7394451 C17.1097708,19.5416164 15.8311218,19.1218335 14.3208685,17.7708082 C13.1435464,16.7189385 12.3474065,15.4209891 12.1158022,15.0253317 C11.8841978,14.6296743 12.0916767,14.4125452 12.2895054,14.2147165 C12.4680338,14.0361882 12.6851628,13.7515078 12.8829916,13.5199035 C13.0808203,13.2882992 13.1483715,13.1242461 13.278649,12.8588661 C13.4089264,12.5934861 13.3462002,12.3618818 13.2448733,12.1640531 C13.1435464,11.9662244 12.3522316,10.0168878 12.0241255,9.22074789 C11.7008444,8.44873341 11.3775633,8.5548854 11.1314837,8.54041013 C10.8998794,8.53075995 10.6344994,8.52593486 10.3739445,8.52593486 C10.1085645,8.52593486 9.67913148,8.62726176 9.3172497,9.02291918 C8.95536791,9.4185766 7.93244873,10.3787696 7.93244873,12.3281062 C7.93244873,14.2774427 9.35102533,16.1640531 9.54885404,16.424608 C9.74668275,16.6899879 12.3425814,20.6899879 16.318456,22.4077201 C17.2641737,22.8178528 18.0024125,23.0591074 18.5765983,23.2424608 C19.5271411,23.5464415 20.3908323,23.5030157 21.0711701,23.4016888 C21.8335344,23.2858866 23.4161641,22.4414958 23.7442702,21.5199035 C24.0723764,20.5934861 24.0723764,19.8021713 23.9758745,19.6381182 C23.8793727,19.4740651 23.6139928,19.3775633 23.2183353,19.1749095 Z" id="Shape"></path>
                                </g>
                            </g>
                        </g>
                    </g>
                </g>
            </g>
        </g>
    </g>
</svg>