<?xml version="1.0" encoding="UTF-8"?>
<svg width="14px" height="16px" viewBox="0 0 14 16" version="1.1" xmlns="http://www.w3.org/2000/svg" xmlns:xlink="http://www.w3.org/1999/xlink">
    <title>notification-bell-on-svgrepo-com</title>
    <g id="Page-1" stroke="none" stroke-width="1" fill="none" fill-rule="evenodd" stroke-linejoin="round">
        <g id="Home-Page-V2.1-Copy" transform="translate(-847, -66)" stroke="#000000" stroke-width="1.05">
            <g id="Header" transform="translate(123.8698, 25)">
                <g id="Navigation" transform="translate(578, 21)">
                    <g id="Menu" transform="translate(5.5642, 5.9999)">
                        <g id="Group-9" transform="translate(141, 10)">
                            <g id="notification-bell-on-svgrepo-com" transform="translate(0, 4)">
                                <path d="M3.85528832,12.6315789 C3.37809095,12.6315789 1.8913699,12.6315789 0.789872532,12.6315789 C0.20298569,12.6315789 -0.178006415,12.0139737 0.0844541112,11.4890526 L0.758743585,10.1404737 C0.977988322,9.702 1.09213043,9.219 1.09213043,8.72873684 C1.09213043,8.12107895 1.09213043,7.21847368 1.09213043,6.31578947 C1.09213043,4.73684211 1.88160411,1.57894737 5.82897253,1.57894737 C9.77634095,1.57894737 10.5658146,4.73684211 10.5658146,6.31578947 C10.5658146,7.21847368 10.5658146,8.12107895 10.5658146,8.72873684 C10.5658146,9.219 10.6799725,9.702 10.8992094,10.1404737 L11.5734988,11.4890526 C11.8359199,12.0139737 11.4542094,12.6315789 10.8673936,12.6315789 L7.80265674,12.6315789 M3.85528832,12.6315789 C3.85528832,14.2105263 4.64476201,15 5.82897253,15 C7.01318306,15 7.80265674,14.2105263 7.80265674,12.6315789 M5.82897253,1.57894737 L5.82897253,0 M3.85528832,12.6315789 C5.08852516,12.6315789 7.80265674,12.6315789 7.80265674,12.6315789" id="Shape"></path>
                            </g>
                        </g>
                    </g>
                </g>
            </g>
        </g>
    </g>
</svg>