<?xml version="1.0" encoding="UTF-8"?>
<svg width="18px" height="17px" viewBox="0 0 18 17" version="1.1" xmlns="http://www.w3.org/2000/svg" xmlns:xlink="http://www.w3.org/1999/xlink">
    <title>home-svgrepo-com</title>
    <g id="Page-1" stroke="none" stroke-width="1" fill="none" fill-rule="evenodd" stroke-linejoin="round">
        <g id="Home-Page-V2.1-Copy" transform="translate(-722, -65)" stroke="#000000" stroke-width="1.05">
            <g id="Header" transform="translate(123.8698, 25)">
                <g id="Navigation" transform="translate(578, 21)">
                    <g id="Menu" transform="translate(5.5642, 5.9999)">
                        <g id="Group-5" transform="translate(16, 10)">
                            <g id="home-svgrepo-com" transform="translate(0, 4)">
                                <path d="M5.11771309,15 L0.852952181,15 C0.381883751,15 0,14.6181291 0,14.1470385 L0,7.676643 C0,7.4504376 0.0898670418,7.23344419 0.249821164,7.07351391 L7.07344714,0.249830296 C7.40652497,-0.0832767654 7.94661429,-0.0832767654 8.27969212,0.249830296 L15.1033096,7.07351391 C15.2632381,7.23344419 15.3531393,7.4504376 15.3531393,7.676643 L15.3531393,14.1470385 C15.3531393,14.6181291 14.9712726,15 14.5001871,15 L10.2354262,15 M5.11771309,15 L10.2354262,15 M5.11771309,15 L5.11771309,9.88223089 C5.11771309,9.41114025 5.49959684,9.02926937 5.97066527,9.02926937 L9.38247399,9.02926937 C9.85355948,9.02926937 10.2354262,9.41114025 10.2354262,9.88223089 L10.2354262,15" id="Shape"></path>
                            </g>
                        </g>
                    </g>
                </g>
            </g>
        </g>
    </g>
</svg>