<?xml version="1.0" encoding="UTF-8"?>
<svg width="17px" height="17px" viewBox="0 0 17 17" version="1.1" xmlns="http://www.w3.org/2000/svg" xmlns:xlink="http://www.w3.org/1999/xlink">
    <title>star-svgrepo-com</title>
    <g id="Page-1" stroke="none" stroke-width="1" fill="none" fill-rule="evenodd" stroke-linecap="round" stroke-linejoin="round">
        <g id="Home-Page-V2.1-Copy" transform="translate(-977, -65)" stroke="#000000" stroke-width="1.05">
            <g id="Header" transform="translate(123.8698, 25)">
                <g id="Navigation" transform="translate(578, 21)">
                    <g id="Menu" transform="translate(5.5642, 5.9999)">
                        <g id="Group-11" transform="translate(270.3263, 10)">
                            <g id="star-svgrepo-com" transform="translate(0, 4)">
                                <path d="M7.36204196,0.360985331 C7.51834931,-0.120328444 8.19937288,-0.120328444 8.35568022,0.360985331 L9.85282455,4.96853086 C9.92272403,5.18377736 10.1233324,5.32951097 10.3496437,5.32951097 L15.1943355,5.32951097 C15.7003491,5.32951097 15.9107789,5.97711026 15.5014125,6.27461663 L11.5819223,9.12221044 C11.3988672,9.25521795 11.3222808,9.49103725 11.3921802,9.7062733 L12.8892201,14.3137875 C13.0456319,14.7951431 12.4947948,15.1953149 12.0853239,14.8978504 L8.16593815,12.0502565 C7.98277855,11.917249 7.73494364,11.917249 7.55178403,12.0502565 L3.6323774,14.8978504 C3.22295874,15.1953149 2.67206939,14.7951431 2.82846032,14.3137875 L4.32554196,9.7062733 C4.39548323,9.49103725 4.31886546,9.25521795 4.13576855,9.12221044 L0.216351466,6.27461663 C-0.193077648,5.97711026 0.0173417092,5.32951097 0.523418078,5.32951097 L5.3680785,5.32951097 C5.5944107,5.32951097 5.79499816,5.18377736 5.86489763,4.96853086 L7.36204196,0.360985331 Z" id="Path"></path>
                            </g>
                        </g>
                    </g>
                </g>
            </g>
        </g>
    </g>
</svg>