<?xml version="1.0" encoding="UTF-8"?>
<svg width="11px" height="23px" viewBox="0 0 11 23" version="1.1" xmlns="http://www.w3.org/2000/svg" xmlns:xlink="http://www.w3.org/1999/xlink">
    <title>fb-icn</title>
    <g id="Page-1" stroke="none" stroke-width="1" fill="none" fill-rule="evenodd">
        <g id="Home-Page-V2.1-Copy" transform="translate(-1367, -7169)" fill="#F8068E" fill-rule="nonzero">
            <g id="Group-26" transform="translate(0, 4108)">
                <g id="Group-13" transform="translate(1, 3032)">
                    <g id="Group-52" transform="translate(268, 29)">
                        <g id="fb-icn" transform="translate(1098, 0)">
                            <path d="M10.4,3.89963566 C9.77536985,3.71481878 9.12833731,3.61656943 8.477,3.60763566 C7.695,3.60763566 6.012,4.10763566 6.012,5.07063566 L6.012,7.38163566 L10.012,7.38163566 L10.012,11.2736357 L6.012,11.2736357 L6.012,22.0126357 L1.984,22.0126357 L1.984,11.2736357 L0,11.2736357 L0,7.38163566 L1.984,7.38163566 L1.984,5.42163566 C1.984,2.46563566 3.367,0.00763566058 6.7,0.00763566058 C8.14642956,-0.0365351896 9.59233767,0.11108194 11,0.446635661 L10.4,3.89963566 Z" id="layer"></path>
                        </g>
                    </g>
                </g>
            </g>
        </g>
    </g>
</svg>