<?xml version="1.0" encoding="UTF-8"?>
<svg width="23px" height="22px" viewBox="0 0 23 22" version="1.1" xmlns="http://www.w3.org/2000/svg" xmlns:xlink="http://www.w3.org/1999/xlink">
    <title>inst-icn</title>
    <g id="Page-1" stroke="none" stroke-width="1" fill="none" fill-rule="evenodd">
        <g id="Home-Page-V2.1-Copy" transform="translate(-1560, -7170)" fill="#F8068E" fill-rule="nonzero">
            <g id="Group-26" transform="translate(0, 4108)">
                <g id="Group-13" transform="translate(1, 3032)">
                    <g id="Group-52" transform="translate(268, 29)">
                        <g id="Group-38" transform="translate(1098, 0)">
                            <g id="inst-icn" transform="translate(193.927, 1)">
                                <path d="M11.204,16.8930001 C8.90161895,16.8934045 6.82573906,15.5067414 5.94446913,13.3796961 C5.06319921,11.2526507 5.55011901,8.80417757 7.17814829,7.17614829 C8.80617757,5.54811901 11.2546507,5.06119921 13.3816961,5.94246913 C15.5087414,6.82373906 16.8954045,8.89961895 16.8950001,11.202 C16.8900444,14.3429976 14.3449976,16.8880444 11.204,16.8930001 L11.204,16.8930001 Z M11.204,7.7229987 C9.79678554,7.72178677 8.52742235,8.56843184 7.98787702,9.86810289 C7.4483317,11.1677739 7.74487284,12.6644884 8.7392087,13.6602545 C9.73354455,14.6560207 11.2298312,14.9547129 12.5302765,14.4170363 C13.8307217,13.8793597 14.6791905,12.6112147 14.68,11.204 C14.6789013,9.28390334 13.1240931,7.72685862 11.204,7.7229987 Z" id="Subtraction_17" stroke-opacity="0" stroke="#000000"></path>
                                <path d="M15.45,22.005 L6.555,22.005 C2.93660088,22.000592 0.00440798312,19.0683991 0,15.45 L0,6.555 C0.00440798312,2.93660088 2.93660088,0.00440798312 6.555,0 L15.45,0 C19.0683991,0.00440798312 22.000592,2.93660088 22.005,6.555 L22.005,15.45 C22.000592,19.0683991 19.0683991,22.000592 15.45,22.005 Z M6.555,2.214 C4.1589022,2.21730497 2.21730497,4.1589022 2.214,6.555 L2.214,15.45 C2.21675535,17.8468782 4.15912185,19.7892446 6.556,19.792 L15.45,19.792 C17.8468782,19.7892446 19.7892446,17.8468782 19.792,15.45 L19.792,6.555 C19.7886938,4.15851238 17.8464883,2.21675421 15.45,2.214 L6.555,2.214 Z M16.7,6.718 C15.9466836,6.718 15.336,6.1073164 15.336,5.354 C15.336,4.6006836 15.9466836,3.99 16.7,3.99 C17.4533164,3.99 18.064,4.6006836 18.064,5.354 C18.0634485,6.10708784 17.4530878,6.71744849 16.7,6.718 L16.7,6.718 Z" id="Exclusion_50"></path>
                            </g>
                        </g>
                    </g>
                </g>
            </g>
        </g>
    </g>
</svg>