<?xml version="1.0" encoding="UTF-8"?>
<svg width="23px" height="22px" viewBox="0 0 23 22" version="1.1" xmlns="http://www.w3.org/2000/svg" xmlns:xlink="http://www.w3.org/1999/xlink">
    <title>linkedin-icon</title>
    <g id="Page-1" stroke="none" stroke-width="1" fill="none" fill-rule="evenodd">
        <g id="Home-Page-V2.1-Copy" transform="translate(-1627, -7170)" fill="#F8068E" fill-rule="nonzero">
            <g id="Group-26" transform="translate(0, 4108)">
                <g id="Group-13" transform="translate(1, 3032)">
                    <g id="Group-52" transform="translate(268, 29)">
                        <g id="Group-38" transform="translate(1098, 0)">
                            <g id="linkedin-icon" transform="translate(260.932, 1)">
                                <path d="M4.95204758,22.0050487 L0.389047579,22.0050487 L0.389047579,7.31404866 L4.95204758,7.31404866 L4.95204758,22.0050487 Z M2.66804758,5.31008057 C1.5941275,5.31529606 0.622808978,4.67306259 0.207077332,3.68286107 C-0.208654314,2.69265954 0.0130858282,1.54952577 0.76888675,0.786573064 C1.52468767,0.0236203544 2.66568244,-0.208875715 3.65975532,0.197512014 C4.6538282,0.603899742 5.30518082,1.56912679 5.31004941,2.64304866 C5.31174603,4.10695577 4.13190577,5.29796031 2.66804758,5.31008057 Z M22.0260476,22.0050487 L17.4740476,22.0050487 L17.4740476,14.8540487 C17.4740476,13.1540487 17.4400476,10.9640487 15.1020476,10.9640487 C12.7300476,10.9640487 12.3670476,12.8160487 12.3670476,14.7310487 L12.3670476,22.0050487 L7.80904758,22.0050487 L7.80904758,7.31404866 L12.1840476,7.31404866 L12.1840476,9.31404866 L12.2480476,9.31404866 C13.1397717,7.78804019 14.7988163,6.87646877 16.5650476,6.94204866 C21.1820476,6.94204866 22.0310476,9.98204866 22.0310476,13.9320487 L22.0310476,22.0020487 L22.0260476,22.0050487 Z" id="Icon_awesome-linkedin-in"></path>
                            </g>
                        </g>
                    </g>
                </g>
            </g>
        </g>
    </g>
</svg>