<?xml version="1.0" encoding="UTF-8"?>
<svg width="19px" height="19px" viewBox="0 0 19 19" version="1.1" xmlns="http://www.w3.org/2000/svg" xmlns:xlink="http://www.w3.org/1999/xlink">
    <title>X-Logo</title>
    <g id="Page-1" stroke="none" stroke-width="1" fill="none" fill-rule="evenodd">
        <g id="Home-Page-V2.1-Copy" transform="translate(-1423, -7171)" fill="#F8068E" fill-rule="nonzero">
            <g id="Group-26" transform="translate(0, 4108)">
                <g id="Group-13" transform="translate(1, 3032)">
                    <g id="Group-52" transform="translate(268, 29)">
                        <g id="Group-38" transform="translate(1098, 0)">
                            <g id="X-Logo" transform="translate(56, 2)">
                                <path d="M0,0.000484287549 L5.486,0.000484287549 C5.51767382,-0.00296755802 5.54847975,0.0122404307 5.565,0.0394842875 C6.48433333,1.37881762 7.40433333,2.71815095 8.325,4.05748429 L10.3,6.93048429 L10.339,6.98548429 L10.661,6.61148429 L16.316,0.0374842875 C16.3325431,0.016754085 16.3566438,0.00344476265 16.383,0.000484287549 C16.902,0.000484287549 17.422,0.000484287549 17.942,0.000484287549 L17.982,0.000484287549 L17.937,0.0564842875 L13.423,5.30048429 C12.6483333,6.20381762 11.874,7.10381762 11.1,8.00048429 C11.07,8.03548429 11.075,8.05548429 11.1,8.08948429 C11.9,9.26015095 12.7023333,10.4304843 13.507,11.6004843 L16.307,15.6694843 L18.564,18.9524843 C18.575,18.9684843 18.585,18.9854843 18.596,19.0014843 L13.053,19.0014843 C13.041,18.9824843 13.031,18.9624843 13.018,18.9444843 L12.651,18.4094843 L10.417,15.1584843 L8.038,11.6954843 L7.987,11.6234843 L7.953,11.6614843 L5.491,14.5214843 L1.779,18.8354843 C1.733,18.8894843 1.69,18.9444843 1.645,18.9994843 L0.038,18.9994843 C0.0250099014,18.9980672 0.0122457664,18.9950441 0,18.9904843 C0.012045705,18.9802429 0.0234036318,18.969219 0.034,18.9574843 L3.472,14.9624843 C4.72066667,13.511151 5.97,12.0598176 7.22,10.6084843 C7.2356441,10.5970524 7.24537258,10.5792374 7.24653305,10.5598963 C7.24769352,10.5405552 7.24016497,10.5217047 7.226,10.5084843 C7.044,10.2474843 6.865,9.98548429 6.685,9.72348429 L4.538,6.60048429 L2.438,3.54048429 L0.19,0.277484288 C0.128,0.187484288 0.063,0.100484288 0,0.0104842875 L0,0.000484287549 Z M2.235,1.23748429 L2.266,1.28448429 L6.166,6.86648429 L10.36,12.8604843 L13.799,17.7804843 C13.8153338,17.8081256 13.8459951,17.8240385 13.878,17.8214843 L16.344,17.8214843 C16.331,17.8014843 16.324,17.7874843 16.315,17.7744843 L12.937,12.9404843 L9.366,7.83448429 C7.83666667,5.64715095 6.30766667,3.45981762 4.779,1.27248429 C4.76303316,1.24464428 4.73181056,1.22923059 4.7,1.23348429 L2.288,1.23348429 L2.236,1.23348429 L2.235,1.23748429 Z" id="twitter"></path>
                            </g>
                        </g>
                    </g>
                </g>
            </g>
        </g>
    </g>
</svg>