<?xml version="1.0" encoding="UTF-8"?>
<svg width="30px" height="22px" viewBox="0 0 30 22" version="1.1" xmlns="http://www.w3.org/2000/svg" xmlns:xlink="http://www.w3.org/1999/xlink">
    <title>youtube-icn</title>
    <g id="Page-1" stroke="none" stroke-width="1" fill="none" fill-rule="evenodd">
        <g id="Home-Page-V2.1-Copy" transform="translate(-1486, -7170)" fill="#F8068E" fill-rule="nonzero">
            <g id="Group-26" transform="translate(0, 4108)">
                <g id="Group-13" transform="translate(1, 3032)">
                    <g id="Group-52" transform="translate(268, 29)">
                        <g id="Group-38" transform="translate(1098, 0)">
                            <g id="youtube-icn" transform="translate(119.596, 1)">
                                <path d="M29.036,4.749 C28.8996517,3.63478752 28.4992142,2.5692397 27.868,1.641 C27.1142351,0.813315317 26.051364,0.334733723 24.932,0.319 C20.832,0 14.671,0 14.671,0 L14.657,0 C14.657,0 8.5,0 4.396,0.319 C3.2759106,0.33406323 2.21216598,0.812712106 1.458,1.641 C0.828502161,2.5698564 0.429161514,3.63522184 0.293,4.749 C0.110565946,6.43102609 0.0127759512,8.1211576 0,9.813 L0,12.185 C0.0127102106,13.8768446 0.110500396,15.5669794 0.293,17.249 C0.428420194,18.3620323 0.827844748,19.426593 1.458,20.354 C2.32921185,21.1904649 3.48347544,21.6681651 4.691,21.692 C7.038,21.931 14.664,22.005 14.664,22.005 C14.664,22.005 20.828,21.993 24.933,21.679 C26.0519391,21.6598429 27.1135672,21.1805729 27.868,20.354 C28.4994786,19.4268253 28.9005874,18.3623445 29.038,17.249 C29.2204341,15.5669739 29.318224,13.8768424 29.331,12.185 L29.331,9.813 C29.3179727,8.12111039 29.219514,6.43095801 29.036,4.749 Z M11.001,16.505 L11.001,5.505 L20.171,11.005 L11.001,16.505 Z" id="Path_34136"></path>
                            </g>
                        </g>
                    </g>
                </g>
            </g>
        </g>
    </g>
</svg>